<mxfile host="app.diagrams.net" agent="Mozilla/5.0 (Windows NT 10.0; Win64; x64) AppleWebKit/537.36 (KHTML, like Gecko) Chrome/131.0.0.0 Safari/537.36 Edg/131.0.0.0" version="26.0.2">
  <diagram name="Page-1" id="oOUoq3jREYafbVQsvI0w">
    <mxGraphModel dx="827" dy="1579" grid="1" gridSize="10" guides="1" tooltips="1" connect="1" arrows="1" fold="1" page="1" pageScale="1" pageWidth="850" pageHeight="1100" math="0" shadow="0">
      <root>
        <mxCell id="0" />
        <mxCell id="1" parent="0" />
        <mxCell id="mIcAO2cgeM7258UBsHFd-15" value="" style="edgeStyle=orthogonalEdgeStyle;rounded=0;orthogonalLoop=1;jettySize=auto;html=1;endArrow=none;endFill=0;" edge="1" parent="1" source="mIcAO2cgeM7258UBsHFd-2" target="mIcAO2cgeM7258UBsHFd-3">
          <mxGeometry relative="1" as="geometry" />
        </mxCell>
        <mxCell id="mIcAO2cgeM7258UBsHFd-2" value="Sản phẩm đặt hàng" style="rounded=0;whiteSpace=wrap;html=1;" vertex="1" parent="1">
          <mxGeometry x="610" y="-630" width="120" height="60" as="geometry" />
        </mxCell>
        <mxCell id="mIcAO2cgeM7258UBsHFd-14" value="" style="edgeStyle=orthogonalEdgeStyle;rounded=0;orthogonalLoop=1;jettySize=auto;html=1;endArrow=none;endFill=0;" edge="1" parent="1" source="mIcAO2cgeM7258UBsHFd-3" target="mIcAO2cgeM7258UBsHFd-4">
          <mxGeometry relative="1" as="geometry" />
        </mxCell>
        <mxCell id="mIcAO2cgeM7258UBsHFd-3" value="Được đặt" style="rhombus;whiteSpace=wrap;html=1;" vertex="1" parent="1">
          <mxGeometry x="610" y="-780" width="120" height="60" as="geometry" />
        </mxCell>
        <mxCell id="mIcAO2cgeM7258UBsHFd-13" value="" style="edgeStyle=orthogonalEdgeStyle;rounded=0;orthogonalLoop=1;jettySize=auto;html=1;endArrow=none;endFill=0;" edge="1" parent="1" source="mIcAO2cgeM7258UBsHFd-4" target="mIcAO2cgeM7258UBsHFd-6">
          <mxGeometry relative="1" as="geometry" />
        </mxCell>
        <mxCell id="mIcAO2cgeM7258UBsHFd-4" value="Sản phẩm" style="rounded=0;whiteSpace=wrap;html=1;" vertex="1" parent="1">
          <mxGeometry x="410" y="-780" width="130" height="60" as="geometry" />
        </mxCell>
        <mxCell id="mIcAO2cgeM7258UBsHFd-17" value="" style="edgeStyle=orthogonalEdgeStyle;rounded=0;orthogonalLoop=1;jettySize=auto;html=1;endArrow=none;endFill=0;" edge="1" parent="1" source="mIcAO2cgeM7258UBsHFd-5" target="mIcAO2cgeM7258UBsHFd-6">
          <mxGeometry relative="1" as="geometry" />
        </mxCell>
        <mxCell id="mIcAO2cgeM7258UBsHFd-5" value="Nhà cung cấp" style="rounded=0;whiteSpace=wrap;html=1;" vertex="1" parent="1">
          <mxGeometry x="70" y="-780" width="120" height="60" as="geometry" />
        </mxCell>
        <mxCell id="mIcAO2cgeM7258UBsHFd-6" value="Cung cấp" style="rhombus;whiteSpace=wrap;html=1;" vertex="1" parent="1">
          <mxGeometry x="240" y="-780" width="120" height="60" as="geometry" />
        </mxCell>
        <mxCell id="mIcAO2cgeM7258UBsHFd-18" value="Đơn hàng" style="rounded=0;whiteSpace=wrap;html=1;" vertex="1" parent="1">
          <mxGeometry x="410" y="-470" width="130" height="60" as="geometry" />
        </mxCell>
        <mxCell id="mIcAO2cgeM7258UBsHFd-20" value="" style="edgeStyle=orthogonalEdgeStyle;rounded=0;orthogonalLoop=1;jettySize=auto;html=1;endArrow=none;endFill=0;" edge="1" parent="1" source="mIcAO2cgeM7258UBsHFd-19" target="mIcAO2cgeM7258UBsHFd-2">
          <mxGeometry relative="1" as="geometry" />
        </mxCell>
        <mxCell id="mIcAO2cgeM7258UBsHFd-21" value="" style="edgeStyle=orthogonalEdgeStyle;rounded=0;orthogonalLoop=1;jettySize=auto;html=1;endArrow=none;endFill=0;" edge="1" parent="1" source="mIcAO2cgeM7258UBsHFd-19" target="mIcAO2cgeM7258UBsHFd-18">
          <mxGeometry relative="1" as="geometry" />
        </mxCell>
        <mxCell id="mIcAO2cgeM7258UBsHFd-19" value="Hình thành" style="rhombus;whiteSpace=wrap;html=1;" vertex="1" parent="1">
          <mxGeometry x="610" y="-480" width="120" height="80" as="geometry" />
        </mxCell>
        <mxCell id="mIcAO2cgeM7258UBsHFd-22" value="Khách hàng" style="rounded=0;whiteSpace=wrap;html=1;" vertex="1" parent="1">
          <mxGeometry x="70" y="-470" width="120" height="60" as="geometry" />
        </mxCell>
        <mxCell id="mIcAO2cgeM7258UBsHFd-24" value="" style="edgeStyle=orthogonalEdgeStyle;rounded=0;orthogonalLoop=1;jettySize=auto;html=1;endArrow=none;endFill=0;" edge="1" parent="1" source="mIcAO2cgeM7258UBsHFd-23" target="mIcAO2cgeM7258UBsHFd-18">
          <mxGeometry relative="1" as="geometry" />
        </mxCell>
        <mxCell id="mIcAO2cgeM7258UBsHFd-25" value="" style="edgeStyle=orthogonalEdgeStyle;rounded=0;orthogonalLoop=1;jettySize=auto;html=1;endArrow=none;endFill=0;" edge="1" parent="1" source="mIcAO2cgeM7258UBsHFd-23" target="mIcAO2cgeM7258UBsHFd-22">
          <mxGeometry relative="1" as="geometry" />
        </mxCell>
        <mxCell id="mIcAO2cgeM7258UBsHFd-23" value="Mua" style="rhombus;whiteSpace=wrap;html=1;" vertex="1" parent="1">
          <mxGeometry x="240" y="-470" width="120" height="60" as="geometry" />
        </mxCell>
        <mxCell id="mIcAO2cgeM7258UBsHFd-29" value="1" style="text;html=1;align=center;verticalAlign=middle;whiteSpace=wrap;rounded=0;" vertex="1" parent="1">
          <mxGeometry x="190" y="-780" width="60" height="30" as="geometry" />
        </mxCell>
        <mxCell id="mIcAO2cgeM7258UBsHFd-30" value="n" style="text;html=1;align=center;verticalAlign=middle;resizable=0;points=[];autosize=1;strokeColor=none;fillColor=none;" vertex="1" parent="1">
          <mxGeometry x="370" y="-780" width="30" height="30" as="geometry" />
        </mxCell>
        <mxCell id="mIcAO2cgeM7258UBsHFd-31" value="1" style="text;html=1;align=center;verticalAlign=middle;resizable=0;points=[];autosize=1;strokeColor=none;fillColor=none;" vertex="1" parent="1">
          <mxGeometry x="550" y="-780" width="30" height="30" as="geometry" />
        </mxCell>
        <mxCell id="mIcAO2cgeM7258UBsHFd-32" value="n" style="text;html=1;align=center;verticalAlign=middle;resizable=0;points=[];autosize=1;strokeColor=none;fillColor=none;" vertex="1" parent="1">
          <mxGeometry x="680" y="-565" width="30" height="30" as="geometry" />
        </mxCell>
        <mxCell id="mIcAO2cgeM7258UBsHFd-33" value="1" style="text;html=1;align=center;verticalAlign=middle;resizable=0;points=[];autosize=1;strokeColor=none;fillColor=none;" vertex="1" parent="1">
          <mxGeometry x="545" y="-472" width="30" height="30" as="geometry" />
        </mxCell>
        <mxCell id="mIcAO2cgeM7258UBsHFd-34" value="n" style="text;html=1;align=center;verticalAlign=middle;resizable=0;points=[];autosize=1;strokeColor=none;fillColor=none;" vertex="1" parent="1">
          <mxGeometry x="685" y="-662" width="30" height="30" as="geometry" />
        </mxCell>
        <mxCell id="mIcAO2cgeM7258UBsHFd-35" value="n" style="text;html=1;align=center;verticalAlign=middle;resizable=0;points=[];autosize=1;strokeColor=none;fillColor=none;" vertex="1" parent="1">
          <mxGeometry x="365" y="-472" width="30" height="30" as="geometry" />
        </mxCell>
        <mxCell id="mIcAO2cgeM7258UBsHFd-36" value="1" style="text;html=1;align=center;verticalAlign=middle;resizable=0;points=[];autosize=1;strokeColor=none;fillColor=none;" vertex="1" parent="1">
          <mxGeometry x="200" y="-472" width="30" height="30" as="geometry" />
        </mxCell>
      </root>
    </mxGraphModel>
  </diagram>
</mxfile>
